<svg xmlns="http://www.w3.org/2000/svg" version="1.1" xmlns:xlink="http://www.w3.org/1999/xlink" xmlns:svgjs="http://svgjs.dev/svgjs" width="100%" height="100%" viewBox="0 0 1000 600"><rect width="1000" height="600" x="0" y="0" fill="#f4d35e"/><g><circle r="166.66666666666666" cx="344.8698069254557" cy="367.09202852388717" fill="#2e4057" transform="matrix(0.7014467711583454,0,0,0.7014467711583454,0,42.50449147898186)"/><path d="M252.01543990379867 441.86090104814184L250.7442535116873 427.5311635370686L263.224992634235 426.693336142268Q273.6256085696914 425.8555087474673 279.3459473341924 419.29734258816563Q285.06628609869335 412.73917642886397 285.06628609869335 401.29849889986195L285.06628609869335 401.29849889986195L285.06628609869335 293.7676863671712L302.1406305927343 293.7676863671712L302.1406305927343 401.52962369842766Q302.1406305927343 419.61513918619346 292.7800762508235 429.8135209229049Q283.41952190891277 440.0119026596162 265.53624061989194 441.05196425316194L265.53624061989194 441.05196425316194L252.01543990379867 441.86090104814184ZM384.91219907907464 442.09202584670754Q350.59016649206853 442.09202584670754 330.0200594197215 423.57315136163106L330.0200594197215 423.57315136163106L336.6648973784853 410.45681904302774Q347.4699817114317 419.61513918619346 358.82398744097156 423.57315136163106Q370.14910257069073 427.5311635370686 385.14332387764034 427.5311635370686L385.14332387764034 427.5311635370686Q402.8243709679162 427.5311635370686 412.3871595085719 420.65520077973906Q421.94994804922766 413.77923802240963 421.94994804922766 401.29849889986195L421.94994804922766 401.29849889986195Q421.94994804922766 394.01806774504246 417.38523327755513 389.45335297337Q412.7916279060619 384.8886382016974 405.30896255249746 382.1729218185505Q397.826297198933 379.4572054354036 385.14332387764034 376.56814545333236L385.14332387764034 376.56814545333236Q368.06897938359947 372.61013327789476 357.14833265137025 368.2476527049672Q346.2276859191411 363.856281532219 339.4672855610944 355.76691358241953Q332.70688520304776 347.6486550327994 332.70688520304776 334.5323227141961L332.70688520304776 334.5323227141961Q332.70688520304776 322.05158359164847 339.26505136234937 312.3732326517099Q345.82321752165103 302.72377231159203 357.9861600461709 297.407901944581Q370.14910257069073 292.0920315775699 386.18338547118594 292.0920315775699L386.18338547118594 292.0920315775699Q401.35095037705986 292.0920315775699 414.55395449512537 296.88787114780814Q427.78584921301155 301.68371071804637 436.91527875635654 310.61090606264645L436.91527875635654 310.61090606264645L430.4726749963378 323.7272383812498Q420.0720590608814 314.77115243682897 409.35364652739713 310.7264684619293Q398.6641245937336 306.65289388720885 386.18338547118594 306.65289388720885L386.18338547118594 306.65289388720885Q369.1090409771451 306.65289388720885 359.43069003720655 313.8466532425662Q349.78122969708863 321.0115219981028 349.78122969708863 333.92562011796116L349.78122969708863 333.92562011796116Q349.78122969708863 344.9329386496525 358.3039566441987 350.56660561469135Q366.82668359130884 356.17138197990954 384.10326228409474 360.1293941553471L384.10326228409474 360.1293941553471Q403.02660516666117 364.6941089270196 413.83168949960753 368.53655870317436Q424.66566443237457 372.4078990791498 431.8305331879112 380.09279863145923Q438.99540194344786 387.7776981837686 438.99540194344786 400.69179630362703L438.99540194344786 400.69179630362703Q438.99540194344786 413.17253542617465 432.46612638396687 422.5330897680854Q425.9079602246652 431.8936441099961 413.62945530086256 436.9783896784415Q401.35095037705986 442.09202584670754 384.91219907907464 442.09202584670754L384.91219907907464 442.09202584670754Z " fill="#f4d35e" transform="matrix(0.7014467711583454,0,0,0.7014467711583454,0,42.50449147898186)"/><path d="M594.8698255204727 440.41637105710623L594.8698255204727 293.7676863671712L644.1860794144284 293.7676863671712Q679.345939396235 293.7676863671712 698.5870788768293 312.80659164902056Q717.8282183574237 331.8454969308699 717.8282183574237 366.9764663128559L717.8282183574237 366.9764663128559Q717.8282183574237 402.1363262946626 698.5870788768293 421.29079397579477Q679.345939396235 440.41637105710623 644.1860794144284 440.41637105710623L644.1860794144284 440.41637105710623L594.8698255204727 440.41637105710623ZM611.9441700145135 425.8555087474673L643.1460178208827 425.8555087474673Q700.1471712671478 425.8555087474673 700.1471712671478 366.9764663128559L700.1471712671478 366.9764663128559Q700.1471712671478 308.3285486768102 643.1460178208827 308.3285486768102L643.1460178208827 308.3285486768102L611.9441700145135 308.3285486768102L611.9441700145135 425.8555087474673ZM787.2812203264157 336.6124459012874Q806.6379222062928 336.6124459012874 816.1140389474864 346.49303103997096Q825.5612650888594 356.3736161786545 825.5612650888594 376.56814545333236L825.5612650888594 376.56814545333236L825.5612650888594 440.41637105710623L809.1225137908741 440.41637105710623L809.1225137908741 423.13979236432033Q805.1933922152573 432.09587830874113 797.0751336656372 436.9783896784415Q788.956875116017 441.86090104814184 778.3540249818157 441.86090104814184L778.3540249818157 441.86090104814184Q768.5601116425943 441.86090104814184 760.3551812935119 437.931779472525Q752.1502509444297 433.9737672970874 747.3544113741915 426.8955703410129Q742.5585718039533 419.81737338493843 742.5585718039533 411.29464643782836L742.5585718039533 411.29464643782836Q742.5585718039533 399.85396890882635 748.3944729677371 393.4980369482697Q754.230374131521 387.1709955875337 767.5200500490486 384.3686074049246Q780.8386165663969 381.53732862249484 804.5577990192015 381.53732862249484L804.5577990192015 381.53732862249484L809.1225137908741 381.53732862249484L809.1225137908741 374.690256464986Q809.1225137908741 362.00728314369337 803.9222058231459 356.2869443791924Q798.7218978554178 350.56660561469135 787.0789861276708 350.56660561469135L787.0789861276708 350.56660561469135Q769.6001732361399 350.56660561469135 752.3524851431747 361.3716899476377L752.3524851431747 361.3716899476377L746.7188181781358 349.0931850238351Q754.6348425290109 343.4884086586169 765.7577234599852 340.05042727995215Q776.8806043909593 336.6124459012874 787.2812203264157 336.6124459012874L787.2812203264157 336.6124459012874ZM780.6363823676519 428.57122513061427Q793.1171214901996 428.57122513061427 801.1198176405368 420.1351699829663Q809.1225137908741 411.6991148353183 809.1225137908741 398.40943891779074L809.1225137908741 398.40943891779074L809.1225137908741 392.3713035552619L805.3956264140022 392.3713035552619Q787.0789861276708 392.3713035552619 777.516197587015 393.93139594558033Q767.9534090463593 395.4914883358988 763.8798344716389 399.13170391330857Q759.8351504967392 402.7719194907183 759.8351504967392 409.85011644679275L759.8351504967392 409.85011644679275Q759.8351504967392 417.93948439659215 765.7577234599852 423.25535476360324Q771.6802964232312 428.57122513061427 780.6363823676519 428.57122513061427L780.6363823676519 428.57122513061427ZM907.3216625814748 336.6124459012874Q943.7238183555721 336.6124459012874 943.7238183555721 376.7703796520773L943.7238183555721 376.7703796520773L943.7238183555721 440.41637105710623L926.880598660097 440.41637105710623L926.880598660097 377.81044124562294Q926.880598660097 363.65404733347395 921.3624940943408 357.2114435734552Q915.8443895285849 350.76883981343633 903.7681188035273 350.76883981343633L903.7681188035273 350.76883981343633Q889.8428496899439 350.76883981343633 881.5223569415788 359.29156676054646Q873.2018641932137 367.81429370765653 873.2018641932137 382.37515601729547L873.2018641932137 382.37515601729547L873.2018641932137 440.41637105710623L856.3586444977385 440.41637105710623L856.3586444977385 339.12592808568934L872.9996299944687 339.12592808568934L872.9996299944687 355.76691358241953Q877.997703763452 346.40635924050883 886.924899108052 341.49495727098775Q895.8809850524727 336.6124459012874 907.3216625814748 336.6124459012874L907.3216625814748 336.6124459012874ZM991.3644174599265 440.41637105710623L974.4923071646306 440.41637105710623L974.4923071646306 339.12592808568934L991.3644174599265 339.12592808568934L991.3644174599265 440.41637105710623ZM972.84554297485 314.16444984059405L972.84554297485 295.2122163582069L993.213415848452 295.2122163582069L993.213415848452 314.16444984059405L972.84554297485 314.16444984059405ZM1060.4129510314287 441.86090104814184L1059.170655239138 427.5311635370686L1071.6513943616856 426.693336142268Q1082.0520102971418 425.8555087474673 1087.7723490616431 419.29734258816563Q1093.492687826144 412.73917642886397 1093.492687826144 401.29849889986195L1093.492687826144 401.29849889986195L1093.492687826144 293.7676863671712L1110.5381417203641 293.7676863671712L1110.5381417203641 401.52962369842766Q1110.5381417203641 419.61513918619346 1101.1775873784534 429.8135209229049Q1091.8170330365429 440.0119026596162 1073.933751747522 441.05196425316194L1073.933751747522 441.05196425316194L1060.4129510314287 441.86090104814184ZM1193.3386008065254 442.09202584670754Q1159.0165682195193 442.09202584670754 1138.4175705473513 423.57315136163106L1138.4175705473513 423.57315136163106L1145.0624085061152 410.45681904302774Q1155.8963834388824 419.61513918619346 1167.2214985686014 423.57315136163106Q1178.5755042981414 427.5311635370686 1193.5408350052703 427.5311635370686L1193.5408350052703 427.5311635370686Q1211.2218820955459 427.5311635370686 1220.7846706362016 420.65520077973906Q1230.3474591768577 413.77923802240963 1230.3474591768577 401.29849889986195L1230.3474591768577 401.29849889986195Q1230.3474591768577 394.01806774504246 1225.782744405185 389.45335297337Q1221.2180296335123 384.8886382016974 1213.7064736801271 382.1729218185505Q1206.223808326563 379.4572054354036 1193.5408350052703 376.56814545333236L1193.5408350052703 376.56814545333236Q1176.49538111105 372.61013327789476 1165.574734378821 368.2476527049672Q1154.6540876465917 363.856281532219 1147.8936872885452 355.76691358241953Q1141.1332869304983 347.6486550327994 1141.1332869304983 334.5323227141961L1141.1332869304983 334.5323227141961Q1141.1332869304983 322.05158359164847 1147.6625624899793 312.3732326517099Q1154.220728649281 302.72377231159203 1166.3836711738008 297.407901944581Q1178.5755042981414 292.0920315775699 1194.5808965988158 292.0920315775699L1194.5808965988158 292.0920315775699Q1209.7773521045106 292.0920315775699 1222.9803562225761 296.88787114780814Q1236.1833603406412 301.68371071804637 1245.341680483807 310.61090606264645L1245.341680483807 310.61090606264645L1238.8990767237883 323.7272383812498Q1228.498460788332 314.77115243682897 1217.7800482548478 310.7264684619293Q1207.0616357213635 306.65289388720885 1194.5808965988158 306.65289388720885L1194.5808965988158 306.65289388720885Q1177.5354427045957 306.65289388720885 1167.857091764657 313.8466532425662Q1158.1787408247187 321.0115219981028 1158.1787408247187 333.92562011796116L1158.1787408247187 333.92562011796116Q1158.1787408247187 344.9329386496525 1166.7014677718287 350.56660561469135Q1175.2241947189386 356.17138197990954 1192.5007734117246 360.1293941553471L1192.5007734117246 360.1293941553471Q1211.4241162942908 364.6941089270196 1222.2580912270582 368.53655870317436Q1233.0631755600043 372.4078990791498 1240.228044315541 380.09279863145923Q1247.4218036708985 387.7776981837686 1247.4218036708985 400.69179630362703L1247.4218036708985 400.69179630362703Q1247.4218036708985 413.17253542617465 1240.8636375115966 422.5330897680854Q1234.3054713522952 431.8936441099961 1222.0269664284924 436.9783896784415Q1209.7773521045106 442.09202584670754 1193.3386008065254 442.09202584670754L1193.3386008065254 442.09202584670754Z " fill="#083d77" transform="matrix(0.7014467711583454,0,0,0.7014467711583454,0,42.50449147898186)"/></g></svg>